<svg width="672" height="453" viewBox="0 0 672 453" fill="none" xmlns="http://www.w3.org/2000/svg">
<line y1="278.036" x2="688.258" y2="452.208" stroke="#FF9527"/>
<line y1="-0.5" x2="668.976" y2="154.316" transform="matrix(0.996173 -0.0874046 0.0869076 0.996216 41.8101 288.212)" stroke="#FF9527"/>
<line y1="-0.5" x2="649.721" y2="134.956" transform="matrix(0.984722 -0.174133 0.173165 0.984893 83.6201 297.888)" stroke="#FF9527"/>
<line y1="-0.5" x2="630.489" y2="115.593" transform="matrix(0.965739 -0.259514 0.258126 0.966111 125.43 307.564)" stroke="#FF9527"/>
<line y1="-0.5" x2="611.276" y2="96.23" transform="matrix(0.939376 -0.342889 0.341153 0.940008 167.24 317.241)" stroke="#FF9527"/>
<line y1="-0.5" x2="592.078" y2="76.8703" transform="matrix(0.905842 -0.423616 0.421621 0.906772 209.05 326.917)" stroke="#FF9527"/>
<line y1="-0.5" x2="572.889" y2="57.5158" transform="matrix(0.865402 -0.501078 0.498923 0.866646 250.86 336.593)" stroke="#FF9527"/>
<line y1="-0.5" x2="553.703" y2="38.1685" transform="matrix(0.818377 -0.574682 0.572471 0.819925 292.67 346.27)" stroke="#FF9527"/>
<line y1="-0.5" x2="534.518" y2="18.8296" transform="matrix(0.765134 -0.643871 0.641703 0.766953 334.48 355.946)" stroke="#FF9527"/>
<line y1="-0.5" x2="515.326" y2="-0.5" transform="matrix(0.70609 -0.708122 0.70609 0.708122 376.291 365.622)" stroke="#FF9527"/>
</svg>
